<svg width="28" height="34" viewBox="0 0 28 34" fill="none" xmlns="http://www.w3.org/2000/svg">
<g id="Vector">
<path id="Vector_2" d="M13.9851 34C14.4017 34 14.7588 33.625 14.7588 33.1875V32.6563C21.8703 32.25 27.6132 26.2812 28 18.7187C28 18.5 27.9405 18.2813 27.7917 18.125C27.6429 17.9688 27.4347 17.875 27.2264 17.875H24.9054C24.4889 17.875 24.1318 18.25 24.1318 18.6875C24.1318 19.125 24.4889 19.5 24.9054 19.5H26.3932C25.7088 25.7812 20.7991 30.6562 14.7588 31.0625V11.3437H19.728C20.1445 11.3437 20.5016 10.9688 20.5016 10.5313C20.5016 10.0938 20.1445 9.71874 19.728 9.71874H14.7588V5.5625C15.8597 5.21875 16.6929 4.12499 16.6929 2.84374C16.6929 1.28124 15.4729 0 13.9851 0C12.4973 0 11.2774 1.28124 11.2774 2.84374C11.2774 4.12499 12.0808 5.21875 13.2115 5.5625V9.71874H8.2423C7.82572 9.71874 7.46865 10.0938 7.46865 10.5313C7.46865 10.9688 7.82572 11.3437 8.2423 11.3437H13.2115V31.0625C7.17109 30.6875 2.29117 25.8125 1.60679 19.5H3.09457C3.51115 19.5 3.86823 19.125 3.86823 18.6875C3.86823 18.25 3.51115 17.875 3.09457 17.875H0.773638C0.565349 17.875 0.357071 17.9688 0.208293 18.125C0.0595148 18.2813 0 18.5 0 18.7187C0.357067 26.2812 6.0999 32.25 13.2412 32.6563V33.1875C13.2115 33.625 13.5388 34 13.9851 34ZM12.8247 2.78124C12.8247 2.12499 13.3305 1.5625 13.9851 1.5625C14.61 1.5625 15.1456 2.09374 15.1456 2.78124C15.1456 3.43749 14.6397 4 13.9851 4C13.3305 4 12.8247 3.46874 12.8247 2.78124Z" fill="#333333"/>
</g>
</svg>
