<svg width="33" height="30" viewBox="0 0 33 30" fill="none" xmlns="http://www.w3.org/2000/svg">
<g id="Vector">
<path id="Vector_2" d="M25.8275 26.7466C25.8275 24.9635 24.4044 23.4932 22.6785 23.4932C21.2252 23.4932 19.9838 24.5255 19.6507 25.9333H18.2276C17.8643 24.5255 16.6531 23.4932 15.1998 23.4932C13.7464 23.4932 12.505 24.5255 12.1719 25.9333H12.0811V21.6475H25.8578C26.1605 21.6475 26.4028 21.4911 26.5542 21.2096L32.9126 9.00938C33.0337 8.75912 33.0338 8.4463 32.8824 8.19604C32.731 7.94578 32.4887 7.78937 32.2162 7.78937H7.78155L5.35928 0.531808C5.23817 0.218982 4.96566 0 4.60232 0H0.78725C0.363352 0 0 0.375383 0 0.813339C0 1.2513 0.363352 1.6267 0.78725 1.6267H4.05731L10.5066 20.9593V26.7466C10.5066 27.1846 10.87 27.5599 11.2939 27.5599H12.1719C12.5353 28.9677 13.7464 30 15.1998 30C16.6531 30 17.8945 28.9677 18.2276 27.5599H19.6507C20.014 28.9677 21.2252 30 22.6785 30C24.4044 30 25.8275 28.561 25.8275 26.7466ZM30.8537 9.44734L25.343 20.0208H11.8086L8.26602 9.44734H30.8537ZM15.1998 28.3733C14.3217 28.3733 13.6253 27.6538 13.6253 26.7466C13.6253 25.8394 14.3217 25.1199 15.1998 25.1199C16.0778 25.1199 16.7742 25.8394 16.7742 26.7466C16.7742 27.6538 16.0476 28.3733 15.1998 28.3733ZM22.6785 28.3733C21.8005 28.3733 21.1041 27.6538 21.1041 26.7466C21.1041 25.8394 21.8005 25.1199 22.6785 25.1199C23.5566 25.1199 24.253 25.8394 24.253 26.7466C24.253 27.6538 23.5566 28.3733 22.6785 28.3733Z" fill="#333333"/>
</g>
</svg>
