<svg width="29" height="34" viewBox="0 0 29 34" fill="none" xmlns="http://www.w3.org/2000/svg">
<g id="Group">
<path id="Vector" d="M6.56222 28.5363C6.98558 28.5363 7.34845 28.1616 7.34845 27.7245V15.7355C7.34845 15.2984 6.98558 14.9238 6.56222 14.9238C5.38288 14.9238 4.20353 15.2672 3.17539 15.8916C2.54036 16.2663 1.99604 16.7658 1.54245 17.2966C1.63317 12.2075 3.20563 1.62351 14.485 1.62351C22.438 1.62351 27.2461 7.46189 27.4275 17.2654C26.9739 16.7346 26.4296 16.2351 25.7946 15.8604C24.7665 15.236 23.6174 14.8926 22.4078 14.8926C21.9844 14.8926 21.6215 15.2672 21.6215 15.7043V27.6621C21.6215 28.0992 21.9844 28.4738 22.4078 28.4738C23.0126 28.4738 23.6174 28.3802 24.1919 28.2241V30.1598L18.2347 32.4389C17.8416 32.595 17.6299 33.0634 17.7811 33.4692C17.9021 33.7815 18.2045 34 18.5069 34C18.5976 34 18.6883 33.9688 18.779 33.9376L25.2503 31.4711C25.5527 31.3462 25.7644 31.0652 25.7644 30.7218V27.5372C27.6997 26.3508 29 24.1653 29 21.6988V17.7961C29 12.8007 27.8207 8.4922 25.6132 5.40129C23.073 1.87328 19.2326 0 14.5152 0C9.64666 0 5.89695 1.77961 3.35682 5.30762C1.14933 8.36731 0.000229389 12.6758 0.000229389 17.7961V21.6988C-0.0300102 25.4766 2.93347 28.5363 6.56222 28.5363ZM23.194 26.8503V16.641C23.829 16.7346 24.4338 16.9844 24.9781 17.3278C26.4901 18.2645 27.4275 19.9192 27.4275 21.7612C27.4275 24.3214 25.5829 26.4444 23.194 26.8503ZM3.96162 17.2966C4.50593 16.9532 5.11072 16.7346 5.74575 16.6097V26.8191C3.35683 26.4444 1.51221 24.2902 1.51221 21.6988C1.54245 19.888 2.44964 18.2332 3.96162 17.2966Z" fill="#333333"/>
</g>
</svg>
