<svg width="24" height="30" viewBox="0 0 24 30" fill="none" xmlns="http://www.w3.org/2000/svg">
<g id="Vector">
<path id="Vector_2" d="M0 18.8008V29.1867C0 29.6246 0.386051 30 0.836454 30H23.1635C23.6139 30 24 29.6246 24 29.1867V18.8008C24 16.83 23.0027 15.0469 21.2976 14.0146C20.1072 13.2638 18.8204 12.7007 17.4692 12.2628C19.2708 10.3545 19.9142 7.7268 19.0777 5.13034C18.0804 2.03337 15.3137 0.0312826 12 0C12 0 12 0 11.9678 0C8.65416 0.0312826 5.88741 2.06465 4.89009 5.13034C4.05362 7.69551 4.69706 10.3545 6.49867 12.2628C5.17963 12.7007 3.89276 13.2951 2.67024 14.0146C1.02949 15.0469 0 16.83 0 18.8008ZM3.60322 15.391C5.08312 14.4838 6.72387 13.8269 8.42896 13.4202C8.75068 13.3577 9.00805 13.1074 9.07239 12.7946C9.13674 12.4818 9.00805 12.1689 8.75068 11.9812C6.17695 10.2294 5.91958 7.5391 6.56301 5.63087C7.17427 3.72263 8.9437 1.65798 12.0643 1.6267C14.6381 1.65798 16.7936 3.22211 17.5657 5.63087C18.1769 7.5391 17.9196 10.2294 15.3459 11.9812C15.0885 12.1689 14.9598 12.4818 15.0241 12.7946C15.0885 13.1074 15.3459 13.3577 15.6676 13.4202C17.3727 13.7956 18.9812 14.4526 20.4933 15.391C21.6837 16.1418 22.4236 17.4244 22.4236 18.8008V28.3733H1.76944V18.8008C1.67292 17.3931 2.41287 16.1105 3.60322 15.391Z" fill="#333333"/>
</g>
</svg>
